<?xml version="1.0" standalone="no"?>
<!DOCTYPE svg PUBLIC "-//W3C//DTD SVG 20010904//EN"
 "http://www.w3.org/TR/2001/REC-SVG-20010904/DTD/svg10.dtd">
<svg version="1.0" xmlns="http://www.w3.org/2000/svg"
 width="329.000000pt" height="325.000000pt" viewBox="0 0 329.000000 325.000000"
 preserveAspectRatio="xMidYMid meet">

<g transform="translate(0.000000,325.000000) scale(0.100000,-0.100000)"
fill="#000000" stroke="none">
<path d="M1463 3229 c-95 -11 -281 -54 -367 -85 -107 -38 -272 -127 -367 -196
-107 -79 -269 -218 -269 -230 0 -6 -20 -33 -45 -60 -93 -103 -229 -335 -279
-474 -125 -348 -125 -745 0 -1097 29 -82 109 -236 172 -331 26 -39 49 -75 51
-81 12 -32 197 -235 213 -235 6 0 27 -15 47 -32 124 -111 174 -144 331 -220
114 -54 257 -103 366 -123 49 -9 97 -21 106 -26 22 -12 422 -12 446 0 9 5 55
16 102 25 182 34 379 110 520 201 383 246 643 616 725 1035 9 47 21 93 26 103
15 27 22 313 10 382 -31 186 -60 300 -104 415 -14 36 -34 89 -45 119 -39 101
-143 256 -256 385 -125 142 -344 307 -504 381 -270 126 -589 178 -879 144z
m387 -53 c121 -16 237 -44 333 -81 75 -28 224 -100 247 -120 8 -7 37 -25 64
-40 122 -67 291 -224 408 -380 112 -148 225 -401 262 -585 67 -334 39 -639
-88 -950 -94 -230 -269 -456 -473 -613 -163 -125 -268 -182 -448 -242 -190
-64 -286 -79 -510 -79 -189 0 -208 2 -335 32 -158 36 -240 66 -372 133 -200
103 -426 299 -556 484 -54 77 -130 218 -203 380 -23 51 -65 236 -78 345 -61
488 144 1012 524 1343 138 119 343 243 485 293 93 32 255 71 345 83 108 13
279 12 395 -3z"/>
<path d="M1308 2266 c-138 -50 -236 -167 -254 -303 l-7 -53 125 0 126 0 5 28
c9 43 44 80 88 92 35 10 47 8 80 -8 l40 -20 -3 137 -3 136 -80 2 c-47 2 -95
-3 -117 -11z"/>
<path d="M1540 2075 c0 -184 -2 -210 -20 -244 -25 -49 -130 -146 -237 -218
-181 -121 -233 -220 -233 -441 l0 -122 357 0 358 0 -120 120 -120 120 -107 0
c-62 0 -109 4 -113 10 -16 26 36 78 155 157 148 98 244 193 292 290 29 59 33
78 38 177 l5 111 105 0 c126 0 148 -6 196 -47 87 -76 87 -200 0 -276 -47 -41
-69 -46 -196 -47 l-105 0 -3 38 -3 37 -41 -60 c-22 -33 -78 -95 -124 -138
l-84 -77 0 -70 0 -70 122 -123 c67 -67 123 -122 124 -122 2 0 5 93 6 207 l3
207 155 -222 155 -222 152 0 152 0 -130 185 c-71 102 -132 192 -135 200 -4 9
11 22 43 39 59 30 151 126 181 189 44 94 53 199 27 301 -20 74 -53 131 -113
190 -64 63 -96 83 -171 106 -56 18 -92 20 -317 20 l-254 0 0 -205z"/>
</g>
</svg>
